<?xml version="1.0" encoding="utf-8"?>
<!-- Generator: Adobe Illustrator 21.1.0, SVG Export Plug-In . SVG Version: 6.00 Build 0)  -->
<svg version="1.1" id="m-button-group" xmlns="http://www.w3.org/2000/svg" xmlns:xlink="http://www.w3.org/1999/xlink" x="0px" y="0px"
	 viewBox="0 0 260 260" style="enable-background:new 0 0 260 260;" xml:space="preserve">
<style type="text/css">
	.modul-u--preview-img--dark {
        fill:#1f2f39;
    }

    .modul-u--preview-img {
        fill:#1f2f39;
        opacity:0.5;
    }

    .modul-u--preview-img--light {
        fill:#1f2f39;
        opacity:0.3;
    }
</style>
<g class="modul-u--preview-img">
	<path d="M86,116.8H14c-2.2,0-4,1.8-4,4v18.5c0,2.2,1.8,4,4,4h72V116.8z"/>
	<rect x="92" y="53.3" width="76" height="26.5"/>
	<rect x="92" y="180.3" width="76" height="26.5"/>
</g>

<g class="modul-u--preview-img--light">
	<rect x="92" y="116.8" width="76" height="26.5"/>
	<path d="M174,116.8v26.5h72c2.2,0,4-1.8,4-4v-18.5c0-2.2-1.8-4-4-4H174z"/>
	<path d="M86,53.3H14c-2.2,0-4,1.8-4,4v18.5c0,2.2,1.8,4,4,4h72V53.3z"/>
	<path d="M174,53.3v26.5h72c2.2,0,4-1.8,4-4V57.3c0-2.2-1.8-4-4-4H174z"/>
	<path d="M86,180.3H14c-2.2,0-4,1.8-4,4v18.5c0,2.2,1.8,4,4,4h72V180.3z"/>
	<path d="M174,180.3v26.5h72c2.2,0,4-1.8,4-4v-18.5c0-2.2-1.8-4-4-4H174z"/>
</g>

<g class="modul-u--preview-img--dark">
	<rect x="105" y="126.8" width="50" height="6.3"/>
	<rect x="23" y="126.8" width="50" height="6.3"/>
	<rect x="187" y="126.8" width="50" height="6.3"/>
	<rect x="105" y="63.3" width="50" height="6.3"/>
	<rect x="23" y="63.3" width="50" height="6.3"/>
	<rect x="187" y="63.3" width="50" height="6.3"/>
	<rect x="105" y="190.3" width="50" height="6.3"/>
	<rect x="23" y="190.3" width="50" height="6.3"/>
	<rect x="187" y="190.3" width="50" height="6.3"/>
</g>
</svg>
