<?xml version="1.0" encoding="utf-8"?>
<!-- Generator: Adobe Illustrator 21.1.0, SVG Export Plug-In . SVG Version: 6.00 Build 0)  -->
<svg version="1.1" id="m-link" xmlns="http://www.w3.org/2000/svg" xmlns:xlink="http://www.w3.org/1999/xlink" x="0px" y="0px"
	 viewBox="0 0 260 260" style="enable-background:new 0 0 260 260;" xml:space="preserve">
<style type="text/css">
	.modul-u--preview-img--dark {
        fill:#1f2f39;
    }

    .modul-u--preview-img {
        fill:#1f2f39;
        opacity:0.5;
    }

    .modul-u--preview-img--light {
        fill:#1f2f39;
        opacity:0.3;
    }
</style>
<g class="modul-u--preview-img">
	<rect x="32.4" y="156.3" width="217.6" height="12.9"/>
	<rect x="32.4" y="123.5" width="92.6" height="12.9"/>
	<rect x="34.2" y="189" width="155.8" height="12.9"/>
	<rect x="32.6" y="90.8" width="176.4" height="12.9"/>
	<rect x="32.4" y="58" width="130.3" height="12.9"/>
</g>
<g class="modul-u--preview-img--dark">
	<polygon points="10.3,153 10,153.2 10,156.4 16.4,162.8 10,169.1 10,172.3 10.3,172.5 
		20,162.8"/>
	<polygon points="10.3,120.3 10,120.4 10,123.7 16.4,130 10,136.3 10,139.6 10.3,139.7 
		20,130"/>
	<polygon points="10.3,185.8 10,185.9 10,189.2 16.9,195.5 10,201.8 10,205.1 10.3,205.2 
		20.8,195.5"/>
	<polygon points="10.3,87.5 10,87.7 10,90.9 16.4,97.3 10,103.6 10,106.8 10.3,107 
			20.1,97.3"/>
	<polygon points="10.3,54.8 10,54.9 10,58.2 16.4,64.5 10,70.8 10,74.1 10.3,74.2 20,64.5"/>
	<rect x="32.4" y="140.5" width="92.6" height="1.3"/>
</g>
</svg>
