<?xml version="1.0" encoding="utf-8"?>
<!-- Generator: Adobe Illustrator 21.1.0, SVG Export Plug-In . SVG Version: 6.00 Build 0)  -->
<svg version="1.1" id="m-sidebar" xmlns="http://www.w3.org/2000/svg" xmlns:xlink="http://www.w3.org/1999/xlink" x="0px" y="0px"
	 viewBox="0 0 260 260" style="enable-background:new 0 0 260 260;" xml:space="preserve">
<style type="text/css">
	.modul-u--preview-img--dark {
        fill:#1f2f39;
    }

    .modul-u--preview-img {
        fill:#1f2f39;
        opacity:0.5;
    }

    .modul-u--preview-img--light {
        fill:#1f2f39;
        opacity:0.3;
    }
</style>
<path class="modul-u--preview-img" d="M250,171H10V18c0-4.4,3.6-8,8-8h224c4.4,0,8,3.6,8,8V171z"/>
<rect class="modul-u--preview-img--light" x="10" y="171" width="240" height="79"/>
<g class="modul-u--preview-img--dark ">
	<rect x="25" y="188" width="196.1" height="6.3"/>
	<rect x="25" y="201.1" width="210" height="6.3"/>
	<rect x="25" y="214.1" width="152" height="6.3"/>
	<polygon points="234.2,158 230.6,154.5 234.2,151 232,148.8 228.5,152.4 225,148.8 
		222.8,151 226.4,154.5 222.8,158 225,160.2 228.5,156.6 232,160.2 		"/>
	<rect x="25" y="188" width="196.1" height="6.3"/>
	<rect x="25" y="201.1" width="210" height="6.3"/>
	<rect x="25" y="214.1" width="152" height="6.3"/>
	<polygon points="234.2,158 230.6,154.5 234.2,151 232,148.8 228.5,152.4 225,148.8 
			222.8,151 226.4,154.5 222.8,158 225,160.2 228.5,156.6 232,160.2 		"/>
</g>
</svg>
