<?xml version="1.0" encoding="utf-8"?>
<!-- Generator: Adobe Illustrator 21.1.0, SVG Export Plug-In . SVG Version: 6.00 Build 0)  -->
<svg version="1.1" id="m-accordion" xmlns="http://www.w3.org/2000/svg" xmlns:xlink="http://www.w3.org/1999/xlink" x="0px" y="0px"
	 viewBox="0 0 260 260" style="enable-background:new 0 0 260 260;" xml:space="preserve">
<style type="text/css">
    .modul-u--preview-img--dark {
        fill:#1f2f39;
    }

    .modul-u--preview-img {
        fill:#1f2f39;
        opacity:0.5;
    }

    .modul-u--preview-img--light {
        fill:#1f2f39;
        opacity:0.3;
    }
</style>
<g class="modul-u--preview-img">
    <rect x="10" y="10" width="240" height="43"/>
    
    <rect x="10" y="59.3" width="240" height="43"/>
    <rect x="10" y="207" width="240" height="43"/>
</g>
<rect class="modul-u--preview-img--light" x="10" y="108.7" width="240" height="92"/>  
<g class="modul-u--preview-img--dark">
    <rect x="10" y="10" width="4" height="43"/>
    <polygon points="235,30 230,30 230,25 227,25 227,30 222,30 222,33 227,33 227,38 230,38
    230,33 235,33 		"/>
    <rect x="222" y="79.3" width="13" height="3"/>
    <polygon points="235,227 230,227 230,222 227,222 227,227 222,227 222,230 227,230
        227,235 230,235 230,230 235,230 		"/>
    <rect x="10" y="207" width="4" height="43"/>
    <rect x="10" y="59.3" width="4" height="43"/>
</g>
</svg>
