<?xml version="1.0" encoding="utf-8"?>
<!-- Generator: Adobe Illustrator 21.1.0, SVG Export Plug-In . SVG Version: 6.00 Build 0)  -->
<svg version="1.1" id="m-checkbox" xmlns="http://www.w3.org/2000/svg" xmlns:xlink="http://www.w3.org/1999/xlink" x="0px" y="0px"
	 viewBox="0 0 260 260" style="enable-background:new 0 0 260 260;" xml:space="preserve">
<style type="text/css">
	.modul-u--preview-img--dark {
        fill:#1f2f39;
    }

    .modul-u--preview-img {
        fill:#1f2f39;
        opacity:0.5;
    }

    .modul-u--preview-img--light {
        fill:#1f2f39;
        opacity:0.3;
    }
</style>
<g class="modul-u--preview-img--dark">
	<path d="M37.4,58v24.5H13V58H37.4 M37.9,55H12.6c-1.4,0-2.6,1.2-2.6,2.6v25.3c0,1.4,1.2,2.6,2.6,2.6h25.3
		c1.4,0,2.6-1.2,2.6-2.6V57.6C40.4,56.1,39.3,55,37.9,55L37.9,55z"/>
	<path d="M22.6,78.2c-0.5,0-0.9-0.2-1.2-0.6l-4.9-6c-0.5-0.6-0.4-1.6,0.2-2.1c0.6-0.5,1.6-0.4,2.1,0.2l3.7,4.6l8.9-11.5
		c0.5-0.7,1.4-0.8,2.1-0.3c0.7,0.5,0.8,1.5,0.3,2.1l-10.1,13C23.5,78,23.1,78.2,22.6,78.2C22.6,78.2,22.6,78.2,22.6,78.2z"/>
	<path d="M22.6,118.1c-0.5,0-0.9-0.2-1.2-0.6l-4.9-6c-0.5-0.6-0.4-1.6,0.2-2.1c0.6-0.5,1.6-0.4,2.1,0.2l3.7,4.6
		l8.9-11.5c0.5-0.7,1.4-0.8,2.1-0.3c0.7,0.5,0.8,1.5,0.3,2.1l-10.1,13C23.5,117.9,23.1,118.1,22.6,118.1
		C22.6,118.1,22.6,118.1,22.6,118.1z"/>
	<path d="M22.6,197.8c-0.5,0-0.9-0.2-1.2-0.6l-4.9-6c-0.5-0.6-0.4-1.6,0.2-2.1c0.6-0.5,1.6-0.4,2.1,0.2l3.7,4.6l9-11.5
		c0.5-0.7,1.5-0.8,2.1-0.3c0.7,0.5,0.8,1.5,0.3,2.1l-10.1,13C23.5,197.6,23.1,197.8,22.6,197.8C22.6,197.8,22.6,197.8,22.6,197.8z"
		/>
	<path d="M37.4,97.8v24.5H13V97.8H37.4 M37.9,94.8H12.6c-1.4,0-2.6,1.2-2.6,2.6v25.3c0,1.4,1.2,2.6,2.6,2.6h25.3
		c1.4,0,2.6-1.2,2.6-2.6V97.4C40.4,96,39.3,94.8,37.9,94.8L37.9,94.8z"/>
	<path d="M37.4,137.7v24.5H13v-24.5H37.4 M37.9,134.7H12.6c-1.4,0-2.6,1.2-2.6,2.6v25.3
			c0,1.4,1.2,2.6,2.6,2.6h25.3c1.4,0,2.6-1.2,2.6-2.6v-25.3C40.4,135.9,39.3,134.7,37.9,134.7L37.9,134.7z"/>
	<path d="M37.4,177.6V202H13v-24.5H37.4 M37.9,174.6H12.6c-1.4,0-2.6,1.2-2.6,2.6v25.3c0,1.4,1.2,2.6,2.6,2.6h25.3
		c1.4,0,2.6-1.2,2.6-2.6v-25.3C40.4,175.7,39.3,174.6,37.9,174.6L37.9,174.6z"/>ﬂ
</g>
<g class="modul-u--preview-img">
	<rect x="55.7" y="103.6" width="194.3" height="12.9"/>
	<rect x="55.7" y="143.5" width="161.4" height="12.9"/>
	<rect x="55.7" y="63.7" width="113.2" height="12.9"/>
	<rect x="55.7" y="183.3" width="99" height="12.9"/>
</g>
</svg>
