<?xml version="1.0" encoding="utf-8"?>
<!-- Generator: Adobe Illustrator 21.1.0, SVG Export Plug-In . SVG Version: 6.00 Build 0)  -->
<svg version="1.1" id="m-datepicker" xmlns="http://www.w3.org/2000/svg" xmlns:xlink="http://www.w3.org/1999/xlink" x="0px" y="0px"
	 viewBox="0 0 260 260" style="enable-background:new 0 0 260 260;" xml:space="preserve">
<style type="text/css">
	.modul-u--preview-img--dark {
        fill:#1f2f39;
    }

    .modul-u--preview-img {
        fill:#1f2f39;
        opacity:0.5;
    }

    .modul-u--preview-img--light {
        fill:#1f2f39;
        opacity:0.3;
    }
</style>
<g class="modul-u--preview-img--light">
	<path d="M10,29.5v201h240v-201H10z M36.5,208.5c-2.5,0-4.5-2-4.5-4.5s2-4.5,4.5-4.5s4.5,2,4.5,4.5
		S39,208.5,36.5,208.5z M36.5,180.5c-2.5,0-4.5-2-4.5-4.5s2-4.5,4.5-4.5s4.5,2,4.5,4.5S39,180.5,36.5,180.5z M36.5,152.5
		c-2.5,0-4.5-2-4.5-4.5s2-4.5,4.5-4.5s4.5,2,4.5,4.5S39,152.5,36.5,152.5z M36.5,124.5c-2.5,0-4.5-2-4.5-4.5s2-4.5,4.5-4.5
		s4.5,2,4.5,4.5S39,124.5,36.5,124.5z M36.5,93.8c-2.6,0-4.8-2.1-4.8-4.8s2.1-4.8,4.8-4.8s4.8,2.1,4.8,4.8S39.1,93.8,36.5,93.8z
			M66.8,208.5c-2.5,0-4.5-2-4.5-4.5s2-4.5,4.5-4.5c2.5,0,4.5,2,4.5,4.5S69.3,208.5,66.8,208.5z M66.8,180.5c-2.5,0-4.5-2-4.5-4.5
		s2-4.5,4.5-4.5c2.5,0,4.5,2,4.5,4.5S69.3,180.5,66.8,180.5z M66.8,152.5c-2.5,0-4.5-2-4.5-4.5s2-4.5,4.5-4.5c2.5,0,4.5,2,4.5,4.5
		S69.3,152.5,66.8,152.5z M66.8,124.5c-2.5,0-4.5-2-4.5-4.5s2-4.5,4.5-4.5c2.5,0,4.5,2,4.5,4.5S69.3,124.5,66.8,124.5z M66.8,93.8
		c-2.6,0-4.8-2.1-4.8-4.8s2.1-4.8,4.8-4.8c2.6,0,4.8,2.1,4.8,4.8S69.5,93.8,66.8,93.8z M97.2,208.5c-2.5,0-4.5-2-4.5-4.5
		s2-4.5,4.5-4.5c2.5,0,4.5,2,4.5,4.5S99.7,208.5,97.2,208.5z M97.2,180.5c-2.5,0-4.5-2-4.5-4.5s2-4.5,4.5-4.5c2.5,0,4.5,2,4.5,4.5
		S99.7,180.5,97.2,180.5z M97.2,152.5c-2.5,0-4.5-2-4.5-4.5s2-4.5,4.5-4.5c2.5,0,4.5,2,4.5,4.5S99.7,152.5,97.2,152.5z M97.2,124.5
		c-2.5,0-4.5-2-4.5-4.5s2-4.5,4.5-4.5c2.5,0,4.5,2,4.5,4.5S99.7,124.5,97.2,124.5z M97.2,93.8c-2.6,0-4.8-2.1-4.8-4.8
		s2.1-4.8,4.8-4.8c2.6,0,4.8,2.1,4.8,4.8S99.8,93.8,97.2,93.8z M127.5,208.5c-2.5,0-4.5-2-4.5-4.5s2-4.5,4.5-4.5s4.5,2,4.5,4.5
		S130,208.5,127.5,208.5z M127.5,180.5c-2.5,0-4.5-2-4.5-4.5s2-4.5,4.5-4.5s4.5,2,4.5,4.5S130,180.5,127.5,180.5z M127.5,152.5
		c-2.5,0-4.5-2-4.5-4.5s2-4.5,4.5-4.5s4.5,2,4.5,4.5S130,152.5,127.5,152.5z M127.5,124.5c-2.5,0-4.5-2-4.5-4.5s2-4.5,4.5-4.5
		s4.5,2,4.5,4.5S130,124.5,127.5,124.5z M127.5,93.8c-2.6,0-4.8-2.1-4.8-4.8s2.1-4.8,4.8-4.8s4.8,2.1,4.8,4.8
		S130.1,93.8,127.5,93.8z M157.8,208.5c-2.5,0-4.5-2-4.5-4.5s2-4.5,4.5-4.5c2.5,0,4.5,2,4.5,4.5S160.3,208.5,157.8,208.5z
			M157.8,180.5c-2.5,0-4.5-2-4.5-4.5s2-4.5,4.5-4.5c2.5,0,4.5,2,4.5,4.5S160.3,180.5,157.8,180.5z M157.8,124.5
		c-2.5,0-4.5-2-4.5-4.5s2-4.5,4.5-4.5c2.5,0,4.5,2,4.5,4.5S160.3,124.5,157.8,124.5z M157.8,93.8c-2.6,0-4.8-2.1-4.8-4.8
		s2.1-4.8,4.8-4.8c2.6,0,4.8,2.1,4.8,4.8S160.5,93.8,157.8,93.8z M188.2,208.5c-2.5,0-4.5-2-4.5-4.5s2-4.5,4.5-4.5
		c2.5,0,4.5,2,4.5,4.5S190.7,208.5,188.2,208.5z M188.2,180.5c-2.5,0-4.5-2-4.5-4.5s2-4.5,4.5-4.5c2.5,0,4.5,2,4.5,4.5
		S190.7,180.5,188.2,180.5z M188.2,152.5c-2.5,0-4.5-2-4.5-4.5s2-4.5,4.5-4.5c2.5,0,4.5,2,4.5,4.5S190.7,152.5,188.2,152.5z
			M188.2,124.5c-2.5,0-4.5-2-4.5-4.5s2-4.5,4.5-4.5c2.5,0,4.5,2,4.5,4.5S190.7,124.5,188.2,124.5z M188.2,93.8
		c-2.6,0-4.8-2.1-4.8-4.8s2.1-4.8,4.8-4.8c2.6,0,4.8,2.1,4.8,4.8S190.8,93.8,188.2,93.8z M218.5,208.5c-2.5,0-4.5-2-4.5-4.5
		s2-4.5,4.5-4.5s4.5,2,4.5,4.5S221,208.5,218.5,208.5z M218.5,180.5c-2.5,0-4.5-2-4.5-4.5s2-4.5,4.5-4.5s4.5,2,4.5,4.5
		S221,180.5,218.5,180.5z M218.5,152.5c-2.5,0-4.5-2-4.5-4.5s2-4.5,4.5-4.5s4.5,2,4.5,4.5S221,152.5,218.5,152.5z M218.5,124.5
		c-2.5,0-4.5-2-4.5-4.5s2-4.5,4.5-4.5s4.5,2,4.5,4.5S221,124.5,218.5,124.5z M218.5,93.8c-2.6,0-4.8-2.1-4.8-4.8s2.1-4.8,4.8-4.8
		s4.8,2.1,4.8,4.8S221.1,93.8,218.5,93.8z"/>
	<circle cx="36.5" cy="89" r="3.8"/>
	<circle cx="157.8" cy="89" r="3.8"/>
	<circle cx="127.5" cy="89" r="3.8"/>
	<circle cx="97.2" cy="89" r="3.8"/>
	<circle cx="218.5" cy="89" r="3.8"/>
	<circle cx="188.2" cy="89" r="3.8"/>
	<circle cx="66.8" cy="89" r="3.8"/>
</g>
<g class="modul-u--preview-img">
	<circle cx="36.5" cy="120" r="4.5"/>
	<circle cx="66.8" cy="120" r="4.5"/>
	<circle cx="97.2" cy="120" r="4.5"/>
	<circle cx="127.5" cy="120" r="4.5"/>
	<circle cx="157.8" cy="120" r="4.5"/>
	<circle cx="188.2" cy="120" r="4.5"/>
	<circle cx="218.5" cy="120" r="4.5"/>
	<circle cx="36.5" cy="148" r="4.5"/>
	<circle cx="66.8" cy="148" r="4.5"/>
	<circle cx="97.2" cy="148" r="4.5"/>
	<circle cx="127.5" cy="148" r="4.5"/>
	<circle cx="188.2" cy="148" r="4.5"/>
	<circle cx="218.5" cy="148" r="4.5"/>
	<circle cx="36.5" cy="176" r="4.5"/>
	<circle cx="66.8" cy="176" r="4.5"/>
	<circle cx="97.2" cy="176" r="4.5"/>
	<circle cx="127.5" cy="176" r="4.5"/>
	<circle cx="157.8" cy="176" r="4.5"/>
	<circle cx="188.2" cy="176" r="4.5"/>
	<circle cx="218.5" cy="176" r="4.5"/>
	<circle cx="36.5" cy="204" r="4.5"/>
	<circle cx="66.8" cy="204" r="4.5"/>
	<circle cx="97.2" cy="204" r="4.5"/>
	<circle cx="127.5" cy="204" r="4.5"/>
	<circle cx="157.8" cy="204" r="4.5"/>
	<circle cx="188.2" cy="204" r="4.5"/>
	<circle cx="218.5" cy="204" r="4.5"/>
	<path d="M36.5,85.2c2.1,0,3.8,1.7,3.8,3.8s-1.7,3.8-3.8,3.8s-3.8-1.7-3.8-3.8S34.4,85.2,36.5,85.2 M36.5,84.2c-2.6,0-4.8,2.1-4.8,4.8s2.1,4.8,4.8,4.8s4.8-2.1,4.8-4.8S39.1,84.2,36.5,84.2L36.5,84.2z"/>
	<path d="M66.8,85.2c2.1,0,3.8,1.7,3.8,3.8s-1.7,3.8-3.8,3.8s-3.8-1.7-3.8-3.8S64.8,85.2,66.8,85.2 M66.8,84.2c-2.6,0-4.8,2.1-4.8,4.8s2.1,4.8,4.8,4.8c2.6,0,4.8-2.1,4.8-4.8S69.5,84.2,66.8,84.2L66.8,84.2z"/>
	<path d="M97.2,85.2c2.1,0,3.8,1.7,3.8,3.8s-1.7,3.8-3.8,3.8s-3.8-1.7-3.8-3.8S95.1,85.2,97.2,85.2 M97.2,84.2c-2.6,0-4.8,2.1-4.8,4.8s2.1,4.8,4.8,4.8c2.6,0,4.8-2.1,4.8-4.8S99.8,84.2,97.2,84.2L97.2,84.2z"/>
	<path d="M127.5,85.2c2.1,0,3.8,1.7,3.8,3.8s-1.7,3.8-3.8,3.8s-3.8-1.7-3.8-3.8S125.4,85.2,127.5,85.2 M127.5,84.2c-2.6,0-4.8,2.1-4.8,4.8s2.1,4.8,4.8,4.8s4.8-2.1,4.8-4.8S130.1,84.2,127.5,84.2L127.5,84.2z"/>
	<path d="M157.8,85.2c2.1,0,3.8,1.7,3.8,3.8s-1.7,3.8-3.8,3.8s-3.8-1.7-3.8-3.8S155.8,85.2,157.8,85.2 M157.8,84.2c-2.6,0-4.8,2.1-4.8,4.8s2.1,4.8,4.8,4.8c2.6,0,4.8-2.1,4.8-4.8S160.5,84.2,157.8,84.2L157.8,84.2z"/>
	<path d="M188.2,85.2c2.1,0,3.8,1.7,3.8,3.8s-1.7,3.8-3.8,3.8s-3.8-1.7-3.8-3.8S186.1,85.2,188.2,85.2 M188.2,84.2c-2.6,0-4.8,2.1-4.8,4.8s2.1,4.8,4.8,4.8c2.6,0,4.8-2.1,4.8-4.8S190.8,84.2,188.2,84.2L188.2,84.2z"/>
	<path d="M218.5,85.2c2.1,0,3.8,1.7,3.8,3.8s-1.7,3.8-3.8,3.8s-3.8-1.7-3.8-3.8S216.4,85.2,218.5,85.2 M218.5,84.2c-2.6,0-4.8,2.1-4.8,4.8s2.1,4.8,4.8,4.8s4.8-2.1,4.8-4.8S221.1,84.2,218.5,84.2L218.5,84.2z"/>
</g>
<g class="modul-u--preview-img--dark">
	<rect x="10" y="29.5" width="240" height="39"/>
	<circle cx="157.8" cy="148" r="8"/>
</g>
</svg>
