<?xml version="1.0" encoding="utf-8"?>
<!-- Generator: Adobe Illustrator 21.1.0, SVG Export Plug-In . SVG Version: 6.00 Build 0)  -->
<svg version="1.1" id="m-pannel" xmlns="http://www.w3.org/2000/svg" xmlns:xlink="http://www.w3.org/1999/xlink" x="0px" y="0px"
	 viewBox="0 0 260 260" style="enable-background:new 0 0 260 260;" xml:space="preserve">
<style type="text/css">
	.modul-u--preview-img--dark {
        fill:#1f2f39;
    }

    .modul-u--preview-img {
        fill:#1f2f39;
        opacity:0.5;
    }

    .modul-u--preview-img--light {
        fill:#1f2f39;
        opacity:0.3;
    }
</style>
<rect class="modul-u--preview-img--light" x="10" y="60" width="240" height="144"/>
<g class="modul-u--preview-img--dark">
	<rect x="25" y="103" width="194.9" height="6.3"/>
	<rect x="25" y="73.6" width="101" height="9.1"/>
	<rect x="25" y="116" width="209" height="6.3"/>
	<rect x="25" y="129.1" width="204" height="6.3"/>
	<rect x="25" y="142.1" width="209" height="6.3"/>
	<rect x="25" y="155.1" width="196" height="6.3"/>
	<rect x="25" y="168.1" width="150.4" height="6.3"/>
	<rect x="10" y="56" width="240" height="4"/>
	<rect x="25" y="103" width="194.9" height="6.3"/>
	<rect x="25" y="73.6" width="101" height="9.1"/>
	<rect x="25" y="116" width="209" height="6.3"/>
	<rect x="25" y="129.1" width="204" height="6.3"/>
	<rect x="25" y="142.1" width="209" height="6.3"/>
	<rect x="25" y="155.1" width="196" height="6.3"/>
	<rect x="25" y="168.1" width="150.4" height="6.3"/>
	<rect x="10" y="56" width="240" height="4"/>
</g>
</svg>
