<?xml version="1.0" encoding="utf-8"?>
<!-- Generator: Adobe Illustrator 21.1.0, SVG Export Plug-In . SVG Version: 6.00 Build 0)  -->
<svg version="1.1" id="m-radio" xmlns="http://www.w3.org/2000/svg" xmlns:xlink="http://www.w3.org/1999/xlink" x="0px" y="0px"
	 viewBox="0 0 260 260" style="enable-background:new 0 0 260 260;" xml:space="preserve">
<style type="text/css">
	.modul-u--preview-img--dark {
        fill:#1f2f39;
    }

    .modul-u--preview-img {
        fill:#1f2f39;
        opacity:0.5;
    }

    .modul-u--preview-img--light {
        fill:#1f2f39;
        opacity:0.3;
    }
</style>
<g class="modul-u--preview-img--dark">
	<path d="M25.2,58c6.7,0,12.2,5.5,12.2,12.2c0,6.7-5.5,12.2-12.2,12.2C18.5,82.4,13,77,13,70.2C13,63.5,18.5,58,25.2,58
		L25.2,58 M25.2,55L25.2,55C16.8,55,10,61.8,10,70.2v0c0,8.4,6.8,15.2,15.2,15.2h0c8.4,0,15.2-6.8,15.2-15.2v0
		C40.4,61.8,33.6,55,25.2,55L25.2,55z"/>
	<path d="M25.2,97.8c6.7,0,12.2,5.5,12.2,12.2c0,6.7-5.5,12.2-12.2,12.2c-6.7,0-12.2-5.5-12.2-12.2
		C13,103.3,18.5,97.8,25.2,97.8 M25.2,94.8L25.2,94.8c-8.4,0-15.2,6.8-15.2,15.2v0c0,8.4,6.8,15.2,15.2,15.2h0
		c8.4,0,15.2-6.8,15.2-15.2v0C40.4,101.7,33.6,94.8,25.2,94.8L25.2,94.8z"/>
	<path d="M25.2,119.9L25.2,119.9c-5.4,0-9.8-4.4-9.8-9.8v0c0-5.4,4.4-9.8,9.8-9.8h0c5.4,0,9.8,4.4,9.8,9.8v0
			C35,115.5,30.6,119.9,25.2,119.9z"/>
	<path d="M25.2,137.7c6.7,0,12.2,5.5,12.2,12.2c0,6.7-5.5,12.2-12.2,12.2c-6.7,0-12.2-5.5-12.2-12.2
		C13,143.2,18.5,137.7,25.2,137.7 M25.2,134.7L25.2,134.7c-8.4,0-15.2,6.8-15.2,15.2v0c0,8.4,6.8,15.2,15.2,15.2h0
		c8.4,0,15.2-6.8,15.2-15.2v0C40.4,141.5,33.6,134.7,25.2,134.7L25.2,134.7z"/>
	<path d="M25.2,177.6c6.7,0,12.2,5.5,12.2,12.2c0,6.7-5.5,12.2-12.2,12.2c-6.7,0-12.2-5.5-12.2-12.2
		C13,183,18.5,177.6,25.2,177.6 M25.2,174.6L25.2,174.6c-8.4,0-15.2,6.8-15.2,15.2v0c0,8.4,6.8,15.2,15.2,15.2h0
		c8.4,0,15.2-6.8,15.2-15.2v0C40.4,181.4,33.6,174.6,25.2,174.6L25.2,174.6z"/>
</g>
<g class="modul-u--preview-img">
	<rect x="55.7" y="63.7" width="113.2" height="12.9"/>
	<rect x="55.7" y="103.6" width="194.3" height="12.9"/>
	<rect x="55.7" y="143.5" width="161.4" height="12.9"/>
	<rect x="55.7" y="183.3" width="99" height="12.9"/>
</g>
</svg>
