<?xml version="1.0" encoding="utf-8"?>
<!-- Generator: Adobe Illustrator 21.1.0, SVG Export Plug-In . SVG Version: 6.00 Build 0)  -->
<svg version="1.1" id="m-switch" xmlns="http://www.w3.org/2000/svg" xmlns:xlink="http://www.w3.org/1999/xlink" x="0px" y="0px"
	 viewBox="0 0 260 260" style="enable-background:new 0 0 260 260;" xml:space="preserve">
<style type="text/css">
	.modul-u--preview-img--dark {
        fill:#1f2f39;
    }

    .modul-u--preview-img {
        fill:#1f2f39;
        opacity:0.5;
    }

    .modul-u--preview-img--light {
        fill:#1f2f39;
        opacity:0.3;
    }
</style>
<g class="modul-u--preview-img">
	<rect x="85" y="183.3" width="70" height="12.9"/>
	<rect x="85" y="63.7" width="84" height="12.9"/>
	<rect x="85" y="103.6" width="165" height="12.9"/>
	<rect x="85" y="143.5" width="132" height="12.9"/>
	<path d="M55.7,96c-0.1,0-0.2,0-0.3,0v0H24.3v0c-0.1,0-0.2,0-0.3,0c-7.7,0-14,6.3-14,14s6.3,14,14,14c0.1,0,0.2,0,0.3,0
		v0h31.1v0c0.1,0,0.2,0,0.3,0c7.7,0,14-6.3,14-14S63.4,96,55.7,96z"/>
	<path d="M55.7,135.9c-0.1,0-0.2,0-0.3,0v0H24.3v0c-0.1,0-0.2,0-0.3,0c-7.7,0-14,6.3-14,14c0,7.7,6.3,14,14,14
		c0.1,0,0.2,0,0.3,0v0h31.1v0c0.1,0,0.2,0,0.3,0c7.7,0,14-6.3,14-14C69.7,142.2,63.4,135.9,55.7,135.9z"/>
	<path d="M55.7,175.8c-0.1,0-0.2,0-0.3,0v0H24.3v0c-0.1,0-0.2,0-0.3,0c-7.7,0-14,6.3-14,14c0,7.7,6.3,14,14,14
		c0.1,0,0.2,0,0.3,0v0h31.1v0c0.1,0,0.2,0,0.3,0c7.7,0,14-6.3,14-14C69.7,182,63.4,175.8,55.7,175.8z"/>
	<path d="M55.7,56.2c-0.1,0-0.2,0-0.3,0v0H24.3v0c-0.1,0-0.2,0-0.3,0c-7.7,0-14,6.3-14,14c0,7.7,6.3,14,14,14
		c0.1,0,0.2,0,0.3,0v0h31.1v0c0.1,0,0.2,0,0.3,0c7.7,0,14-6.3,14-14C69.7,62.5,63.4,56.2,55.7,56.2z"/>
</g>
<g class="modul-u--preview-img--dark">
	<circle cx="24" cy="110.1" r="11"/>
	<circle cx="55.7" cy="149.9" r="11"/>
	<circle cx="24" cy="189.8" r="11"/>
	<circle cx="56" cy="70.2" r="11"/>
</g>
</svg>