<?xml version="1.0" encoding="utf-8"?>
<!-- Generator: Adobe Illustrator 21.1.0, SVG Export Plug-In . SVG Version: 6.00 Build 0)  -->
<svg version="1.1" id="m-timepicker" xmlns="http://www.w3.org/2000/svg" xmlns:xlink="http://www.w3.org/1999/xlink" x="0px" y="0px"
	 viewBox="0 0 260 260" style="enable-background:new 0 0 260 260;" xml:space="preserve">
<style type="text/css">
	.modul-u--preview-img--dark {
        fill:#1f2f39;
    }

    .modul-u--preview-img {
        fill:#1f2f39;
        opacity:0.5;
    }

    .modul-u--preview-img--light {
        fill:#1f2f39;
        opacity:0.3;
    }
</style>
<path class="modul-u--preview-img--light" d="M130,17C67.6,17,17,67.6,17,130s50.6,113,113,113s113-50.6,113-113S192.4,17,130,17z M128.1,18.3h5v17.1h-5
		V18.3z M35.3,131.9H18.3v-5h17.1V131.9z M52.4,210.4l-3.5-3.5l12.1-12.1l3.5,3.5L52.4,210.4z M61.7,64.4L49.6,52.4l3.5-3.5
		l12.1,12.1L61.7,64.4z M131.9,241.7h-5v-17.1h5V241.7z M130,141c-6.1,0-11-4.9-11-11s4.9-11,11-11s11,4.9,11,11S136.1,141,130,141z
		 M206.9,211.2l-12.1-12.1l3.5-3.5l12.1,12.1L206.9,211.2z M199.1,65.2l-3.5-3.5l12.1-12.1l3.5,3.5L199.1,65.2z M224.7,133.1v-5
		h17.1v5H224.7z"/>
<circle class="modul-u--preview-img" cx="130" cy="130" r="11"/>
<g class="modul-u--preview-img--dark">
	<rect x="128.1" y="22" width="4.8" height="16.5"/>
	<rect x="57.4" y="50.8" transform="matrix(0.7071 -0.7071 0.7071 0.7071 -24.2546 59.6195)" width="4.8" height="16.5"/>
	<rect x="22" y="127.1" width="16.5" height="4.8"/>
	<rect x="50.8" y="197.7" transform="matrix(0.7071 -0.7071 0.7071 0.7071 -124.2282 100.4068)" width="16.5" height="4.8"/>
	<rect x="127.1" y="221.5" width="4.8" height="16.5"/>
	<rect x="197.7" y="192.7" transform="matrix(0.7071 -0.7071 0.7071 0.7071 -83.441 200.3804)" width="4.8" height="16.5"/>
	<rect x="221.5" y="128.1" width="16.5" height="4.8"/>
	<rect x="192.7" y="57.4" transform="matrix(0.7071 -0.7071 0.7071 0.7071 16.5327 159.5932)" width="16.5" height="4.8"/>
	<path d="M137.2,144.2l24,24l7-7l-24-24C142.7,140.2,140.2,142.7,137.2,144.2z"/>
	<path d="M143.9,122.2l46.3-45.4l-6.9-7.1l-46.6,45.7C139.7,116.9,142.3,119.3,143.9,122.2z
			"/>
	<path d="M130,250c-66.2,0-120-53.8-120-120S63.8,10,130,10s120,53.8,120,120
			S196.2,250,130,250z M130,26.5C72.9,26.5,26.5,72.9,26.5,130S72.9,233.5,130,233.5S233.5,187.1,233.5,130S187.1,26.5,130,26.5z"/>
	<path d="M130,11c65.6,0,119,53.4,119,119s-53.4,119-119,119S11,195.6,11,130S64.4,11,130,11 M130,234.5
			c57.6,0,104.5-46.9,104.5-104.5S187.6,25.5,130,25.5S25.5,72.4,25.5,130S72.4,234.5,130,234.5 M130,10C63.8,10,10,63.8,10,130
			s53.8,120,120,120s120-53.8,120-120S196.2,10,130,10L130,10z M130,233.5c-57.1,0-103.5-46.4-103.5-103.5S72.9,26.5,130,26.5
			S233.5,72.9,233.5,130S187.1,233.5,130,233.5L130,233.5z"/>
</g>
</svg>
