<?xml version="1.0" encoding="utf-8"?>
<!-- Generator: Adobe Illustrator 21.1.0, SVG Export Plug-In . SVG Version: 6.00 Build 0)  -->
<svg version="1.1" id="m-tooltip" xmlns="http://www.w3.org/2000/svg" xmlns:xlink="http://www.w3.org/1999/xlink" x="0px" y="0px"
	 viewBox="0 0 260 260" style="enable-background:new 0 0 260 260;" xml:space="preserve">
<style type="text/css">
	.modul-u--preview-img--dark {
        fill:#1f2f39;
    }

    .modul-u--preview-img {
        fill:#1f2f39;
        opacity:0.5;
    }

    .modul-u--preview-img--light {
        fill:#1f2f39;
        opacity:0.3;
    }
</style>
<g class="modul-u--preview-img--dark">
	<rect x="31.9" y="62.4" width="1.2" height="4.9"/>
	<circle cx="32.5" cy="60.6" r="0.9"/>
	<path d="M32.5,71c-4.1,0-7.5-3.4-7.5-7.5s3.4-7.5,7.5-7.5s7.5,3.4,7.5,7.5S36.6,71,32.5,71z M32.5,57.2
		c-3.5,0-6.3,2.8-6.3,6.3s2.8,6.3,6.3,6.3s6.3-2.8,6.3-6.3S36,57.2,32.5,57.2z"/>
	<polygon points="236.2,104 232.6,100.5 236.2,97 234,94.8 230.5,98.4 227,94.8 224.8,97 228.4,100.5 224.8,104 
		227,106.2 230.5,102.6 234,106.2 "/>
	<rect x="25" y="97.2" width="172.6" height="6.3"/>
	<rect x="25" y="110.2" width="185" height="6.3"/>
	<rect x="25" y="123.3" width="180.6" height="6.3"/>
	<rect x="25" y="136.3" width="185" height="6.3"/>
	<rect x="25" y="149.3" transform="matrix(1 2.707632e-03 -2.707632e-03 1 0.4132 -0.3019)" width="173.5" height="6.3"/>
	<rect x="24.9" y="162.3" transform="matrix(1 2.707632e-03 -2.707632e-03 1 0.4483 -0.2472)" width="133.2" height="6.3"/>
</g>
<path class="modul-u--preview-img--light" d="M14,204h232c2.2,0,4-1.8,4-4V84c0-2.2-1.8-4-4-4H14c-2.2,0-4,1.8-4,4v116C10,202.2,11.8,204,14,204z"/>
</svg>
