<!-- Generated by IcoMoon.io -->
<svg version="1.1" xmlns="http://www.w3.org/2000/svg" width="24" height="24" viewBox="0 0 24 24">
<title>recherche</title>
<path d="M23.854 23.146l-9.009-9.009c1.336-1.502 2.155-3.473 2.155-5.637 0-4.687-3.813-8.5-8.5-8.5s-8.5 3.813-8.5 8.5c0 4.687 3.813 8.5 8.5 8.5 2.164 0 4.135-0.819 5.637-2.156l9.009 9.009c0.098 0.098 0.226 0.147 0.354 0.147s0.256-0.049 0.354-0.146c0.195-0.195 0.195-0.512 0-0.708zM1 8.5c0-4.135 3.364-7.5 7.5-7.5s7.5 3.365 7.5 7.5c0 4.136-3.364 7.5-7.5 7.5s-7.5-3.364-7.5-7.5z"></path>
</svg>
